<svg width="96" height="96" xmlns="http://www.w3.org/2000/svg" xmlns:xlink="http://www.w3.org/1999/xlink" xml:space="preserve" overflow="hidden"><g transform="translate(-592 -312)"><g><path d="M658 392 622 392 622 328 658 328 658 392ZM636 320 644 320C645.1 320 646 320.9 646 322 646 323.1 645.1 324 644 324L636 324C634.9 324 634 323.1 634 322 634 320.9 634.9 320 636 320ZM662 316 618 316C616.9 316 616 316.9 616 318L616 402C616 403.1 616.9 404 618 404L662 404C663.1 404 664 403.1 664 402L664 318C664 316.9 663.1 316 662 316Z" fill="#000000" fill-rule="nonzero" fill-opacity="1"/></g></g></svg>