<svg width="96" height="96" xmlns="http://www.w3.org/2000/svg" xmlns:xlink="http://www.w3.org/1999/xlink" xml:space="preserve" overflow="hidden"><g transform="translate(-824 -264)"><g><path d="M872 308C867 308 863 304 863 299 863 294 867 290 872 290 877 290 881 294 881 299 881 304 877 308 872 308ZM872 278C865.1 278 858.6 281.4 854.7 287.2 850.8 292.9 850 300.2 852.5 306.7L862 327.7 870.2 344.9C870.5 345.6 871.2 346 872 346 872.8 346 873.5 345.6 873.8 344.9L882 327.7 891.5 306.7C894 300.2 893.2 292.9 889.3 287.2 885.4 281.4 878.9 278 872 278Z" fill="#000000" fill-rule="nonzero" fill-opacity="1"/></g></g></svg>