<svg width="98" height="96" xmlns="http://www.w3.org/2000/svg" xmlns:xlink="http://www.w3.org/1999/xlink" xml:space="preserve" overflow="hidden"><g transform="translate(-378 -252)"><g><g><g><g><path d="M387 272 387 328 467 328 467 272 387 272ZM428.4 306.9C427.6 307.7 426.4 307.7 425.6 306.9L396 278 458.1 278 428.4 306.9ZM412.5 299.7 393 319.3 393 280.6 412.5 299.7ZM415.4 302.5 422.9 309.8C424.1 310.9 425.6 311.5 427.1 311.5 428.6 311.5 430.1 310.9 431.3 309.8L438.8 302.5 458.2 322 395.9 322 415.4 302.5ZM441.5 299.7 461 280.7 461 319.2 441.5 299.7Z" fill="#000000" fill-rule="nonzero" fill-opacity="1"/></g></g></g></g></g></svg>